<svg width="37" height="44" viewBox="0 0 37 44" fill="none" xmlns="http://www.w3.org/2000/svg">
<path d="M7.93645 28.2764C7.67012 33.7437 13.2028 36.8091 14.9364 42.2764" stroke="white"/>
<path d="M29.6224 28.566C29.8882 34.0333 24.3553 37.0982 22.6212 42.5654" stroke="white"/>
<line x1="14.9893" y1="41.5" x2="14.9893" y2="38.5" stroke="white"/>
<line x1="22.4893" y1="41.5" x2="22.4893" y2="38.5" stroke="white"/>
<line x1="22.4893" y1="39" x2="15.4893" y2="39" stroke="white"/>
<path d="M20.9892 16.5C20.9892 16.5 21.4892 19.5 20.9892 22C20.4893 24.5 20.9892 27.5 20.9892 27.5" stroke="white"/>
<path d="M16.7115 16.5C16.7115 16.5 16.2115 19.5 16.7115 22C17.2114 24.5 16.7115 27.5 16.7115 27.5" stroke="white"/>
<path d="M28.0269 31.6439C24.7606 25.005 30.2933 20.2829 36.0269 13.6439" stroke="white"/>
<path d="M9.48919 31.6439C12.7555 25.005 7.22285 20.2829 1.48918 13.6439" stroke="white"/>
<path d="M4.16879 12.4273L8.00201 7.31633L15.2125 16.3294L11.0644 18.4034L4.16879 12.4273Z" stroke="white"/>
<path d="M33.7096 12.4273L29.8764 7.31633L22.666 16.3294L26.8141 18.4034L33.7096 12.4273Z" stroke="white"/>
<path d="M21.7664 27.9165C20.489 29.5005 19.4891 28.0005 18.7664 29.9165" stroke="white"/>
<path d="M15.6513 27.9165C16.9287 29.5005 17.9286 28.0005 18.6513 29.9165" stroke="white"/>
<path d="M21.7664 8.91651C20.489 10.5005 19.4891 9.0005 18.7664 10.9165" stroke="white"/>
<path d="M15.6513 8.91651C16.9287 10.5005 17.9286 9.0005 18.6513 10.9165" stroke="white"/>
<path d="M9.86532 3.171C9.86532 3.171 12.6225 4.93787 13.9893 6.49997C15.3561 8.06207 16.8653 11.171 16.8653 11.171" stroke="white"/>
<path d="M27.5512 3.171C27.5512 3.171 24.794 4.93787 23.4272 6.49997C22.0604 8.06207 20.5512 11.171 20.5512 11.171" stroke="white"/>
<path d="M13.4893 32C13.4893 32 16.8414 33 18.9893 33C21.1371 33 24.4893 32 24.4893 32" stroke="white"/>
<path d="M13.4893 34C13.4893 34 16.8414 33 18.9893 33C21.1371 33 24.4893 34 24.4893 34" stroke="white"/>
<path d="M1.05045 13.3674C6.17464 3.07159 3.92625 11.6631 9.05045 2.36736" stroke="white"/>
<path d="M36.4893 13.3683C31.3652 3.07257 33.6135 11.6641 28.4893 2.36834" stroke="white"/>
<path d="M10.4893 2C10.4893 2 15.6698 1 18.9893 1C22.3087 1 27.4893 2 27.4893 2" stroke="white"/>
</svg>
